<svg height='300px' width='300px'  fill="#000000" xmlns="http://www.w3.org/2000/svg" xmlns:xlink="http://www.w3.org/1999/xlink" xmlns:a="http://ns.adobe.com/AdobeSVGViewerExtensions/3.0/" version="1.1" x="0px" y="0px" viewBox="-27.078 -6.186 100 100" enable-background="new -27.078 -6.186 100 100" xml:space="preserve">
<path fill="#55b817" d="M41.561,0.988c-0.983,1.375-0.67,3.047-0.631,4.652c-1.678,1.252-3.233,2.691-5.283,3.205  c-1.125,0.323-2.167,5.469-2.637,6.594c-0.543,1.326-1.091,2.656-1.634,3.987c-0.905,0.142-2.187,0.137-2.975,0.582  c-1.434,0.963-1.6,4.97-3.624,4.97c-2.432,0-4.927-0.338-7.333-0.651l-0.46,0.944c-0.88,1.825-4.178,1.326-5.929,1.487  c-0.284,3.141-1.834,5.171-3.562,7.749c-0.083,2.27-0.156,4.54-0.225,6.814c-0.083,2.587,1.747,5.738,2.192,8.267  c0.151,0.66-0.479,1.424-0.807,1.923c-1.296,1.99-2.691,3.913-4.056,5.86C3.062,59.568,1.531,61.765,0,63.961  c0.059,2.789,0.558,5.278,1.355,7.944c-0.391,1.003-0.783,2.021-1.174,3.033c0.753,2.876,1.644,5.631,2.764,8.38  c2.104,1.071,4.207,2.138,6.306,3.204c3.581-0.709,6.868-2.353,10.498-3.038c1.081-0.969,2.162-1.937,3.248-2.915  c2.441-7.191,5.493-14.108,8.497-21.084c1.722-3.982,3.435-7.974,5.151-11.956c1.345-3.131,2.524-5.792,4.955-8.267  c-0.112-2.563-0.22-5.142-0.317-7.709c0.87-1.316,1.736-2.637,2.6-3.958c-0.068-1.938-0.127-3.87-0.195-5.802  c0.283-0.118,2.016-0.837,1.976-0.338c-0.059,0.587,0.313,3.116,0.46,3.058c0.754-0.342,3.249-1.766,3.141-2.695  c-0.186-1.546-0.4-3.082-0.616-4.628c-0.509-3.737-0.91-7.519-1.556-11.241C46.73,3.855,43.677,1.585,42.271,0L41.561,0.988  C40.886,1.932,41.561,0.988,41.561,0.988z">
</path>
</svg>
